<svg xmlns="http://www.w3.org/2000/svg" viewBox="0 0 1600 800" role="img" aria-label="12x sem juros em todas as compras">
  <defs>
    <linearGradient id="bg4" x1="0" y1="0" x2="1" y2="1">
      <stop offset="0%" stop-color="#1e1b4b"/>
      <stop offset="100%" stop-color="#0f0d2c"/>
    </linearGradient>
    <linearGradient id="card4" x1="0" y1="0" x2="1" y2="1">
      <stop offset="0%" stop-color="#f1c56a"/>
      <stop offset="100%" stop-color="#c19042"/>
    </linearGradient>
  </defs>
  <rect width="1600" height="800" fill="url(#bg4)"/>
  <circle cx="1500" cy="100" r="280" fill="#f1c56a" opacity="0.05"/>
  <circle cx="100" cy="700" r="200" fill="#6366f1" opacity="0.15"/>
  <g transform="translate(950, 230) rotate(-8)">
    <rect x="0" y="0" width="500" height="300" rx="24" fill="url(#card4)"/>
    <rect x="40" y="80" width="70" height="55" rx="10" fill="#1e1b4b" opacity="0.7"/>
    <rect x="48" y="88" width="54" height="39" rx="6" fill="none" stroke="#f1c56a" stroke-width="2" opacity="0.5"/>
    <text x="40" y="200" font-family="monospace" font-size="32" font-weight="700" fill="#1e1b4b" opacity="0.85" letter-spacing="6">**** ****</text>
    <text x="40" y="240" font-family="monospace" font-size="20" font-weight="600" fill="#1e1b4b" opacity="0.7">VÁLIDO ATÉ 12/29</text>
    <g transform="translate(420, 60)" stroke="#1e1b4b" stroke-width="3" fill="none" opacity="0.7">
      <path d="M0 25 a25 25 0 0 1 0 -50"/>
      <path d="M-15 20 a15 15 0 0 1 0 -40"/>
      <path d="M-30 15 a8 8 0 0 1 0 -30"/>
    </g>
  </g>
  <g transform="translate(120, 270)">
    <text x="0" y="0" font-family="Manrope, system-ui, sans-serif" font-size="200" font-weight="900" fill="#f1c56a" letter-spacing="-6">12x</text>
    <text x="0" y="110" font-family="Manrope, system-ui, sans-serif" font-size="90" font-weight="900" fill="#ffffff" letter-spacing="-2">sem juros</text>
    <text x="0" y="180" font-family="Manrope, system-ui, sans-serif" font-size="34" font-weight="500" fill="#ffffff" opacity="0.85">em todas as compras com cartão</text>
    <rect x="0" y="210" width="180" height="6" rx="3" fill="#f1c56a"/>
  </g>
</svg>
