<svg xmlns="http://www.w3.org/2000/svg" viewBox="0 0 1600 800" role="img" aria-label="Frete grátis em milhares de produtos">
  <defs>
    <linearGradient id="bg2" x1="0" y1="0" x2="1" y2="1">
      <stop offset="0%" stop-color="#4f46e5"/>
      <stop offset="100%" stop-color="#1e1b4b"/>
    </linearGradient>
  </defs>
  <rect width="1600" height="800" fill="url(#bg2)"/>
  <circle cx="1450" cy="150" r="220" fill="#ffffff" opacity="0.08"/>
  <circle cx="200" cy="700" r="180" fill="#ffffff" opacity="0.06"/>
  <circle cx="1200" cy="650" r="120" fill="#ffffff" opacity="0.05"/>
  <g transform="translate(120, 320)">
    <rect x="0" y="20" width="280" height="200" rx="14" fill="#ffffff"/>
    <rect x="280" y="80" width="140" height="140" rx="10" fill="#e0e7ff"/>
    <rect x="300" y="100" width="100" height="60" rx="6" fill="#1e1b4b"/>
    <circle cx="80" cy="240" r="40" fill="#1e1b4b"/>
    <circle cx="80" cy="240" r="18" fill="#a5b4fc"/>
    <circle cx="370" cy="240" r="40" fill="#1e1b4b"/>
    <circle cx="370" cy="240" r="18" fill="#a5b4fc"/>
    <line x1="140" y1="40" x2="140" y2="200" stroke="#a5b4fc" stroke-width="4" stroke-linecap="round"/>
    <line x1="-60" y1="80" x2="-10" y2="80" stroke="#ffffff" stroke-width="6" stroke-linecap="round" opacity="0.7"/>
    <line x1="-90" y1="130" x2="-20" y2="130" stroke="#ffffff" stroke-width="6" stroke-linecap="round" opacity="0.5"/>
    <line x1="-50" y1="180" x2="-15" y2="180" stroke="#ffffff" stroke-width="6" stroke-linecap="round" opacity="0.6"/>
  </g>
  <g transform="translate(620, 300)">
    <text x="0" y="0" font-family="Manrope, system-ui, sans-serif" font-size="120" font-weight="900" fill="#ffffff" letter-spacing="-4">FRETE</text>
    <text x="0" y="130" font-family="Manrope, system-ui, sans-serif" font-size="120" font-weight="900" fill="#f1c56a" letter-spacing="-4">GRÁTIS</text>
    <text x="0" y="210" font-family="Manrope, system-ui, sans-serif" font-size="34" font-weight="500" fill="#ffffff" opacity="0.9">em milhares de produtos selecionados</text>
  </g>
</svg>
