<svg xmlns="http://www.w3.org/2000/svg" viewBox="0 0 1600 900" role="img" aria-label="Garantia Galopee: satisfação garantida ou seu dinheiro de volta">
  <defs>
    <linearGradient id="gabg" x1="0" y1="0" x2="1" y2="0">
      <stop offset="0%" stop-color="#312e81"/>
      <stop offset="100%" stop-color="#4338ca"/>
    </linearGradient>
  </defs>
  <rect width="1600" height="900" fill="url(#gabg)"/>
  <circle cx="200" cy="150" r="180" fill="#ffffff" opacity="0.05"/>
  <circle cx="1400" cy="800" r="220" fill="#ffffff" opacity="0.05"/>
  <g transform="translate(1240, 230)">
    <path d="M180 0 L 360 60 L 360 280 Q 360 400 180 460 Q 0 400 0 280 L 0 60 Z" fill="#f1c56a"/>
    <path d="M180 30 L 330 80 L 330 280 Q 330 380 180 430 Q 30 380 30 280 L 30 80 Z" fill="none" stroke="#ffffff" stroke-width="4" opacity="0.5"/>
    <path d="M 110 220 L 165 280 L 270 160" stroke="#1e1b4b" stroke-width="22" fill="none" stroke-linecap="round" stroke-linejoin="round"/>
  </g>
  <g transform="translate(120, 360)">
    <text x="0" y="0" font-family="Manrope, sans-serif" font-size="56" font-weight="700" fill="#f1c56a" letter-spacing="2">GARANTIA</text>
    <text x="0" y="130" font-family="Manrope, sans-serif" font-size="200" font-weight="900" fill="#ffffff" letter-spacing="-4">100%</text>
    <text x="0" y="210" font-family="Manrope, sans-serif" font-size="34" font-weight="500" fill="#ffffff" opacity="0.9">Compre com segurança ou seu dinheiro de volta</text>
    <rect x="0" y="240" width="180" height="6" rx="3" fill="#f1c56a"/>
  </g>
</svg>
